<svg xmlns="http://www.w3.org/2000/svg" version="1.1" width="600px" height="600px" xlink="http://www.w3.org/1999/xlink" style="overflow:hidden!important;"><g id="svga-group-wrapper" transform="scale(3 3)"><g id="svga-group-backs-single"><path id="SvgjsPath3613" d="M225 225H-25V-25h250V225z" fill="#ecf0f1" stroke-width="none" opacity="1"></path></g><g id="svga-group-subwrapper" transform="translate(9.999999983634211e-8 0)"><g id="svga-group-hair-back" ><path id="SvgjsPath3620" d="M100.5,100.5h-1v-1h1V100.5z" fill="#2a232b" stroke-width="none" opacity="1"></path></g><g id="svga-group-humanbody-single"><path id="SvgjsPath2893" d="M195.417 199.778c-2.196-4.746-8.195-11.779-14.86-13.722 -8.239-2.403-26.837-5.308-33.733-6.923 -5.528-1.296-16.662-11.294-20.564-14.65 -0.7-0.6-1.273-1.839-1.287-2.76 -0.139-10.864 4.195-39.724 4.195-39.724H100 70.833c0 0 4.334 28.859 4.193 39.724 -0.011 0.921-0.587 2.16-1.285 2.76 -3.902 3.356-15.036 13.354-20.564 14.65 -6.897 1.615-25.495 4.619-33.733 7.022 -6.667 1.942-12.664 8.876-14.86 13.622 -3.708 8.008-4.584 22.5-4.584 35h100 100C200 222.278 199.123 207.786 195.417 199.778z" fill="#753915" stroke-width="none" opacity="1" stroke="none"></path><path id="SvgjsPath2894" d="M159.156 184.058c24.342 3.542 34.586 8.708 37.794 50.721H200c0-12.5-0.877-26.992-4.583-35 -2.196-4.746-8.195-11.779-14.86-13.722 -8.239-2.403-26.837-5.308-33.733-6.923 -5.528-1.296-18.242-12.069-21.643-16.35 3.36 4.704 12.791 15.605 21.054 18.46C150.188 182.61 153.48 183.232 159.156 184.058zM53.766 181.244c8.263-2.854 17.693-13.756 21.054-18.46 -3.4 4.28-16.114 15.054-21.643 16.35 -6.896 1.615-25.494 4.619-33.733 7.022 -6.665 1.942-12.664 8.876-14.86 13.622 -3.706 8.008-4.583 22.5-4.583 35h3.05c3.188-41.744 13.475-47.183 37.794-50.721C46.52 183.232 49.813 182.61 53.766 181.244z" fill="#844925" stroke-width="none" opacity="1" stroke="none"></path><path id="SvgjsPath2895" d="M95.646 197.62c0 0-5.074-1.609-7.083-2.379 -10.449-4.009-44.395-6.607-44.395-6.607s35.754 1.419 43.644 2.779c-0.458-4.767-3.017-20.004-3.017-20.004s5.149 16.815 6.409 21.057C91.878 194.734 95.646 197.62 95.646 197.62zM106.445 196.278c-0.089 0.073-0.191 0.168-0.302 0.268C106.256 196.461 106.358 196.372 106.445 196.278zM95.646 197.62c0 0 2.893 2.992 4.347 3.03 1.91 0.051 4.828-2.899 6.151-4.104 -1.265 0.957-4.159 1.391-5.31 1.436C99.504 198.033 95.646 197.62 95.646 197.62zM116.664 190.101c-1.545 0.248-4.386 0.789-4.386 0.789l2.287-14.89c-0.646 3.071-4.474 16.211-8.12 20.278 1.91-1.616 6.158-2.391 8.324-2.704 10.236-1.484 10.232-1.483 41.062-4.94C155.831 188.634 126.76 188.479 116.664 190.101z" fill="#662b08" stroke-width="none" opacity="1" stroke="none"></path><path id="SvgjsPath2896" d="M195.417 199.778c-2.196-4.746-8.195-11.779-14.86-13.722 -8.239-2.403-26.837-5.308-33.733-6.923 -5.528-1.296-16.662-11.294-20.564-14.65 -0.7-0.6-1.273-1.839-1.287-2.76 -0.139-10.864 4.195-39.724 4.195-39.724H100 70.833c0 0 4.334 28.859 4.193 39.724 -0.011 0.921-0.587 2.16-1.285 2.76 -3.902 3.356-15.036 13.354-20.564 14.65 -6.897 1.615-25.495 4.619-33.733 7.022 -6.667 1.942-12.664 8.876-14.86 13.622 -3.708 8.008-4.584 22.5-4.584 35h100 100C200 222.278 199.123 207.786 195.417 199.778z" fill="none" stroke="#471b00" stroke-width="1.5" opacity="1"></path></g><g id="svga-group-chinshadow-single"><path id="SvgjsPath3772" d="M75.464 163.188c5.276 4.256 10.716 8.678 24.538 8.678 13.815 0 19.256-4.418 24.531-8.672 -0.188-0.49-0.305-0.997-0.312-1.461 -0.088-6.889 1.573-20.711 2.835-30.131 -15.695-2.201-38.418-2.201-54.113 0 1.261 9.421 2.922 23.242 2.833 30.13C75.771 162.188 75.654 162.695 75.464 163.188z" fill="url(#SvgjsLinearGradient3773)" opacity="1"></path></g><g id="svga-group-clothes-single" ><path id="SvgjsPath3676" d="M197.798 201.546c-10.478-20.278-30.653-17.404-49.968-22.843 -0.468 3.585-13.251 20.479-16.287 30.061 -1.705-1.423-3.74-3.325-5.209-5.066 -7.188-8.443-17.841-35.76-21.416-14.428 0.777-9.576 5.003-11.686 10.871-3.659 6.308 8.638 6.542 13.098 15.542 22.491 1.59-6.601 5.032-11.259 9.036-17.104 3.875-5.663 6.705-8.217 7.119-13.258 -1.445-2.408-1.099-3.486-3.434-5.046 -14.655-9.912-4.192-19.97-17.476-22.365 -0.104 1.198-0.235 2.54-0.345 3.549 2.841 1.462 3.691 7.152-0.683 11.318 -6.951 7.631-18.12 8.01-21.032 19.723l-0.007-0.001c-0.927 3.477-1.669 8.799-2.021 11.919l-2.455 24.898 -2.47-24.457c-2.003-18.359-4.621-20.155-13.183-25.828 -5.673-3.76-14.943-9.433-11.917-15.847 0.345-0.742 0.765-1.198 1.286-1.541 -0.15-1.466-0.238-2.316-0.354-3.678 -10.967 0.467-9.281 15.982-17.586 21.69 -2.177 1.496-3.287 2.879-4.068 5.129 0.531 6.281 14.504 20.476 16.945 30.899 9.085-9.592 9.155-13.783 15.5-22.459 5.465-7.465 9.928-6.699 10.867 3.403 -0.516-3.035-1.738-7.681-4.386-7.681 -2.182 0-4.456 3.218-5.581 4.771 -6.299 8.678-7.311 14.885-16.647 22.633 -0.646-1.941-1.404-3.891-2.308-5.706 -3.7-7.474-13.719-22.555-14.858-24.017 -4.428 1.246-11.177 2.626-15.233 3.3 -26.504 4.411-36.778 12.969-40.685 53.031 97.202-0.984 136.811-0.556 209.21-0.556C203.66 225.907 201.881 209.46 197.798 201.546z" fill="#6a3a47" stroke-width="none" opacity="1"></path><path id="SvgjsPath3677" d="M139.969 190.783c-3.461 5.054-6.201 9.3-7.908 14.621 1.967-10.979 14.436-21.374 13.086-27.939 -0.578-2.812-10.526-9.081-11.041-18.4 2.745 8.538 12.992 14.632 13.009 18.723C147.142 184.482 146.942 180.595 139.969 190.783zM204.486 234.028c0.347-8.682-2.572-25.584-6.19-32.598 -10.478-20.278-31.563-17.691-50.877-23.13 -0.171 0.218 0.49 1.66 0.027 2.28C192.595 188.9 197.736 198.817 204.486 234.028zM55.812 172.075c5.547-4.597 7.21-9.05 8.483-13.011 -2.85 16.28-7.111 10.123-10.22 18.276 -1.778 4.663 12.003 17.403 13.866 28.063 -2.442-4.175-5.06-9.313-8.521-14.367 -2.694-3.937-4.41-7.537-7.079-10.567C51.069 173.756 53.696 173.829 55.812 172.075zM52.34 180.47c-0.463-0.62-0.894-1.204-1.065-1.422 -19.314 5.438-38.594 2.104-49.071 22.383 -3.619 7.014-5.426 21.363-6.423 30.064 1.929-10.573 4.804-23.893 10.963-31.929C17.188 185.399 36.46 182.665 52.34 180.47z" fill="#794e5a" stroke-width="none" opacity="1"></path><path id="SvgjsPath3678" d="M119.848 171.392c-4.863 2.82-8.981 5.588-11.713 9.481 6.567 0.362 11.421 12.099 12.734 13.695 -12.333-17.166-17-5.5-18.5 5.432 0.432-3.546 0.787-9.596 1.487-12.193 0.204-1.033 0.423-2.021 0.654-2.889l0.007 0.001c2.912-11.713 14.081-12.092 21.032-19.723 4.374-4.166 3.523-9.856 0.683-11.318 0.109-1.009 0.241-2.351 0.345-3.549 0.729 0.133 1.379 0.292 1.982 0.469C137.518 158.679 125.96 168.657 119.848 171.392zM78.965 171.392c4.864 2.82 10.812 6.162 13.536 9.717 -4.798-0.873-10.131 6.294-12.798 12.627 11.5-14.667 15-6.333 18.667 6.265 -0.431-3.545-1.524-9.596-2.224-12.193 -0.204-1.033-0.422-2.021-0.654-2.889l-0.006 0.001c-2.912-11.713-13.682-12.092-20.633-19.723 -4.374-4.166-3.622-9.856-0.781-11.318 -0.109-1.009-0.24-2.351-0.344-3.549 -0.729 0.133-1.379 0.292-1.982 0.469C64.238 159.967 73.472 168.06 78.965 171.392z" fill="#5b2936" stroke-width="none" opacity="1"></path><path id="SvgjsPath3679" d="M125.876 163.323c0.031-5.701-0.159-2.538 0.418-8.99C128.518 155.526 128.801 160.423 125.876 163.323zM74.139 162.784c-2.323-3.04-2.61-6.145-0.347-8.49C74.334 159.352 74.059 158.742 74.139 162.784z" fill="#4b1a27" stroke-width="none" opacity="1"></path><path id="SvgjsPath3680" d="M147.624 176.915c-0.206-3.542-7.813-6.496-11.188-14.175 -2.417-5.47-0.123-11.734-10.065-12.741 -0.545 3.187-1.028 10.193-0.883 13.579 -5.038 5.423-12.831 6.826-17.785 12.657 -5.288 6.224-7.58 19.7-7.667 47.667l1.232-0.801c0 0 1.372-26.485 1.382-26.563 3.084-26.427 12.888-20.185 22.979-31.263 4.521-4.332 3.441-10.072 0.722-11.463 0.118-1.12 0.228-2.229 0.325-3.35 8.552 1.571 6.109 6.605 8.784 12.753 3.556 8.174 10.297 9.959 10.732 13.923 0.69 6.281-3.058 8.947-6.817 14.434 -5.913 8.559-7.28 12.925-8.101 16.308 -8.975-9.426-8.98-13.558-15.398-22.338 -6.844-9.366-11.339-4.974-13.226 10.996 0.194-2.625 3.77-17.175 8.043-14.651 4.939 2.878 9.791 15.108 15.561 21.886 1.539 1.823 3.521 3.652 5.345 5.182 3.407-11.897 16-24.465 16.408-30.205 19.695 5.556 53.439-0.145 56.441 55.963 -41.138 0.22-85.815-0.682-208.97 0.554 1.785-18.437 4.804-36.508 15.723-44.653 4.685-3.507 10.117-5.341 15.712-6.508 7.797-1.616 16.522-2.655 24.253-4.747 0.788 1 14.205 21.198 17.224 29.597 10.863-8.503 15.207-24.459 21.188-27.214 4.164-1.913 7.559 11.938 7.753 14.553 -1.63-16.891-6.95-22.418-17.024-4.923 -4.964 8.624-6.28 10.962-11.56 16.51 -2.12-8.994-16.895-25.954-16.253-30.662 0.634-4.646 6.314-3.363 10.098-13.244 2.122-5.54 1.652-11.648 10.708-13.455 0.098 1.167 0.217 2.32 0.336 3.486 -2.479 1.631-3.109 7.111 0.852 10.942 3.567 4.085 10.004 6.416 14.255 9.676 5.011 3.867 6.993 7.827 8.588 21.67 0.035 0.302 1.37 26.942 1.37 26.942l1.333 0.667c-0.667-27.833-3.335-44.568-8.721-49.258 -4.652-4.15-12.775-6.796-16.717-11.429 0.12-3.476-0.565-10.518-0.993-13.171 -9.009 0.918-9.264 6.638-11.196 11.632 -5.165 13.351-10.134 9.527-10.957 15.059 -0.077 0.517 0.042 0.906 0.167 1.594 -7.58 1.548-17.04 2.563-24.641 3.953 -11.343 2.071-22.045 8.058-26.925 19.452 -3.707 8.647-4.781 24.051-5.053 33.543 -0.011 0.068-0.011 0.147-0.011 0.215 0.152 0.012 0.314 0.012 0.466 0.012 130.475 1.387 208.449-0.578 209.534-0.578C205.369 181.568 176.202 183.902 147.624 176.915zM125.976 163.024c0.016-2.933 0.105-6.329 0.318-8.691C127.892 155.473 129.133 159.262 125.976 163.024zM74.088 162.593c-2.652-3.471-1.6-6.836-0.396-8C73.943 156.939 74.042 160.224 74.088 162.593z" fill="#3c0f1b" stroke-width="none" opacity="1"></path></g><g id="svga-group-head" ><g id="svga-group-ears-left" ><path id="SvgjsPath3681" d="M46.778 83.613c-2.623-1.48-8.575-8.52-11.138-7.517 -1.655 0.646-2.377 5.504-2.638 7.47 -0.333 2.525-0.929 7.711-0.328 10.185 0.725 2.985 3.631 8.507 5.37 11.027 1.468 2.122 5.211 5.797 6.407 8.088 0.759 1.454 1.493 5.373 4.083 5.12 1.674-0.164 5.537-3.072 5.744-4.452C55.406 106.057 51.943 86.528 46.778 83.613z" fill="#753915" stroke="#471b00" stroke-width="1.5" opacity="1"></path><path id="SvgjsPath3682" d="M43.313 99.76c-0.125-0.556 0.006-1.491 0.133-2.395 0.115-0.824 0.224-1.601 0.158-2.151 -0.251-2.06-1.66-5.975-2.578-8.097 -1.059-2.44-2.771-5.515-4.919-6.307 -0.888-0.33-1.473 0.063-1.813 0.461 -0.248 0.292-0.305 0.636-0.223 0.676 0.082 0.041 0.266-0.244 0.535-0.512 0.219-0.219 0.542-0.407 0.983-0.368 -0.178 1.026-1.091 6.582-0.696 10.369 0.311 2.978 1.489 5.202 1.673 5.536 0.028 0.352 0.073 0.695 0.139 1.028 0.869 4.347 4.648 9.29 5.963 10.908 0.243 0.298 0.496 0.476 0.56 0.404 0.062-0.074-0.087-0.368-0.33-0.668 -1.298-1.609-5.042-6.533-5.879-10.728 -0.89-4.45 2.167-11.048 2.849-12.443 0.348 0.655 0.643 1.285 0.87 1.809 0.179 0.412 0.378 0.894 0.581 1.414 -0.402 0.729-3.211 6.042-2.187 10.295 0.38 1.568 2.088 3.589 3.223 4.143 0.624 0.306 0.859 0.761 1.13 1.288 0.314 0.613 0.673 1.307 1.708 1.81 0.211 0.101 0.402 0.144 0.571 0.144 0.293 0 0.515-0.126 0.679-0.281 0.017 0.268 0.016 0.611 0.007 0.928 -0.01 0.411 0.041 0.747 0.129 0.756 0.088 0.008 0.182-0.318 0.192-0.726 0.016-0.503 0.013-1.125-0.067-1.422 -0.232-0.877-0.942-1.867-1.694-2.915C44.27 101.685 43.504 100.618 43.313 99.76zM36.538 95.905c-2.035-6.825 0-13.093 0.458-14.029 0.795 0.785 2.108 2.213 2.679 3.239C39.258 85.938 36.623 91.315 36.538 95.905zM45.318 105.891c-0.938-0.456-1.253-1.067-1.557-1.657 -0.275-0.535-0.56-1.087-1.281-1.44 -0.157-0.077-0.33-0.193-0.505-0.328 -2.324-5.988 0.254-8.606 0.899-9.142 0.199 0.731 0.346 1.403 0.411 1.941 0.061 0.495-0.05 1.28-0.156 2.041 -0.132 0.942-0.268 1.916-0.127 2.546 0.211 0.94 0.999 2.038 1.76 3.1 0.677 0.943 1.373 1.915 1.609 2.708C46.271 105.818 45.949 106.195 45.318 105.891z" fill="#471b00" stroke-width="none" opacity="1"></path></g><g id="svga-group-ears-right" ><path id="SvgjsPath3683" d="M152.961 83.613c2.623-1.48 8.574-8.52 11.137-7.517 1.656 0.646 2.379 5.504 2.639 7.47 0.334 2.525 0.928 7.711 0.328 10.185 -0.725 2.985-3.631 8.507-5.371 11.027 -1.467 2.122-5.211 5.797-6.406 8.088 -0.76 1.454-1.492 5.373-4.084 5.12 -1.674-0.164-5.535-3.072-5.744-4.452C144.332 106.057 147.795 86.528 152.961 83.613z" fill="#753915" stroke="#471b00" stroke-width="1.5" opacity="1"></path><path id="SvgjsPath3684" d="M154.729 102.716c-0.752 1.047-1.463 2.038-1.695 2.915 -0.078 0.297-0.082 0.919-0.066 1.422 0.012 0.407 0.105 0.733 0.193 0.726 0.088-0.009 0.139-0.345 0.129-0.756 -0.01-0.316-0.01-0.66 0.006-0.928 0.164 0.155 0.387 0.281 0.68 0.281 0.168 0 0.359-0.043 0.57-0.144 1.035-0.503 1.395-1.196 1.709-1.81 0.271-0.527 0.506-0.982 1.131-1.288 1.133-0.554 2.842-2.575 3.223-4.143 1.023-4.253-1.785-9.566-2.188-10.295 0.203-0.52 0.402-1.002 0.582-1.414 0.225-0.524 0.521-1.154 0.869-1.809 0.682 1.395 3.738 7.993 2.848 12.443 -0.838 4.195-4.582 9.118-5.879 10.728 -0.242 0.3-0.393 0.594-0.33 0.668 0.064 0.071 0.318-0.106 0.561-0.404 1.314-1.618 5.094-6.561 5.963-10.908 0.066-0.333 0.111-0.677 0.139-1.028 0.184-0.334 1.363-2.558 1.674-5.536 0.395-3.788-0.518-9.343-0.695-10.369 0.441-0.039 0.764 0.149 0.982 0.368 0.268 0.268 0.453 0.552 0.535 0.512 0.08-0.041 0.023-0.384-0.223-0.676 -0.342-0.397-0.926-0.791-1.813-0.461 -2.148 0.792-3.861 3.867-4.92 6.307 -0.92 2.123-2.326 6.037-2.578 8.097 -0.066 0.55 0.043 1.328 0.158 2.151 0.127 0.904 0.256 1.839 0.133 2.395C156.234 100.618 155.469 101.685 154.729 102.716zM160.064 85.115c0.57-1.026 1.883-2.455 2.678-3.239 0.457 0.936 2.494 7.204 0.459 14.029C163.115 91.315 160.48 85.938 160.064 85.115zM153.367 105.66c0.236-0.793 0.932-1.765 1.609-2.708 0.762-1.063 1.549-2.16 1.76-3.1 0.141-0.631 0.006-1.604-0.127-2.546 -0.105-0.76-0.217-1.546-0.156-2.041 0.066-0.539 0.213-1.21 0.412-1.941 0.645 0.536 3.223 3.154 0.898 9.142 -0.176 0.134-0.348 0.25-0.504 0.328 -0.723 0.353-1.008 0.905-1.281 1.44 -0.305 0.59-0.619 1.201-1.559 1.657C153.789 106.195 153.467 105.818 153.367 105.66z" fill="#471b00" stroke-width="none" opacity="1"></path></g><g id="svga-group-faceshape-wrap" ><g id="svga-group-faceshape-single" ><path id="SvgjsPath3769" d="M100.002 0.867C66.384 0.92 39.082 28.536 39.134 62.56c0.008 5.403 0.704 10.643 2.002 15.634h0.001c0.012 0.054 11.542 38.591 14.02 51.25 1.382 7.06 9.063 15.656 16.531 20.849 6.967 4.845 11.263 11.574 28.313 11.574s21.346-6.729 28.313-11.574c7.468-5.192 15.149-13.789 16.531-20.849 2.479-12.658 14.009-51.196 14.02-51.25h0.002c1.298-4.992 1.994-10.231 2.002-15.634C160.923 28.536 133.62 0.92 100.002 0.867z" fill="#753915" stroke-width="none" opacity="1"></path><path id="SvgjsPath3770" d="M146.772 23.096c7.478 10.35 11.917 23.245 11.898 37.227 -0.009 5.403-0.679 10.643-1.93 15.634h-0.002c-0.011 0.054-11.124 38.591-13.512 51.25 -1.335 7.06-8.737 15.656-15.935 20.849 -6.718 4.845-10.854 11.575-27.291 11.575 -16.434 0-20.575-6.73-27.291-11.575 -7.197-5.192-14.602-13.789-15.931-20.849 -2.391-12.658-13.504-51.195-13.515-51.25h0c-1.252-4.992-1.922-10.231-1.931-15.634 -0.021-13.978 4.416-26.868 11.889-37.217 -8.812 10.697-14.112 24.45-14.089 39.453 0.008 5.403 0.704 10.643 2.002 15.634h0.001c0.012 0.054 11.542 38.591 14.02 51.25 1.382 7.06 9.063 15.656 16.531 20.849 6.967 4.845 11.263 11.574 28.313 11.574s21.346-6.729 28.313-11.574c7.468-5.192 15.149-13.789 16.531-20.849 2.479-12.658 14.009-51.196 14.02-51.25h0.002c1.298-4.992 1.994-10.231 2.002-15.634C160.894 47.552 155.589 33.795 146.772 23.096z" fill="#6d320e" stroke-width="none" opacity="1"></path><path id="SvgjsPath3771" d="M100.002 0.867C66.384 0.92 39.082 28.536 39.134 62.56c0.008 5.403 0.704 10.643 2.002 15.634h0.001c0.012 0.054 11.542 38.591 14.02 51.25 1.382 7.06 9.063 15.656 16.531 20.849 6.967 4.845 11.263 11.574 28.313 11.574s21.346-6.729 28.313-11.574c7.468-5.192 15.149-13.789 16.531-20.849 2.479-12.658 14.009-51.196 14.02-51.25h0.002c1.298-4.992 1.994-10.231 2.002-15.634C160.923 28.536 133.62 0.92 100.002 0.867z" fill="none" stroke="#471b00" stroke-width="1.5" opacity="1"></path></g></g><g id="svga-group-mouth-single" transform="translate(0.49999999999999994 0)"><path id="SvgjsPath3787" d="M100.34 141.925c-1.526 0-2.998-0.193-3.9-0.547 -0.257-0.102-0.384-0.392-0.283-0.648 0.101-0.257 0.39-0.383 0.648-0.283 1.664 0.653 5.855 0.676 7.704-0.193 0.251-0.117 0.548-0.01 0.665 0.239 0.118 0.25 0.011 0.548-0.239 0.665C103.815 141.684 102.044 141.925 100.34 141.925zM115.025 133.444c0.398-0.171 0.584-0.632 0.413-1.031s-0.635-0.583-1.031-0.413c-11.666 4.992-28.742 0.338-28.912 0.292 -0.417-0.116-0.852 0.127-0.968 0.546 -0.116 0.418 0.128 0.851 0.546 0.968 0.463 0.128 7.692 2.1 16.034 2.1C105.727 135.905 110.685 135.301 115.025 133.444z" fill="#471b00" stroke-width="none" opacity="1"></path></g><g id="svga-group-eyes-left" ><g id="svga-group-eyesback-left"><path id="SvgjsPath3259" d="M86.729 84.747c0.161 0.571 0.257 1.157 0.257 1.758 0 1.481-0.523 2.881-1.44 4.135 -4.077 0.038-16.966 0.706-18.935-0.303 -2.813-1.441-5.323-7.369-5.506-8.827C71.1 75.761 78.475 76.879 86.729 84.747z" fill="url(#SvgjsRadialGradient3260)" opacity="1"></path></g><g id="svga-group-eyesiriswrapper-left" transform="translate(0.75 0.5)"><g id="svga-group-eyesiriscontrol-left" transform="translate(1 0)"><g id="svga-group-eyesiris-left" ><path id="SvgjsPath3317" d="M80 84c0 3.313-2.687 6-6 6 -3.313 0-6-2.687-6-6l0 0c0-3.314 2.687-6 6-6C77.313 77.999 80 80.686 80 84L80 84z" fill="#472500" stroke-width="none" opacity="1" stroke="none"></path><path id="SvgjsPath3318" d="M73.328 78.066c-0.023 0.003-0.047 0.006-0.071 0.009 0.029 0.135 0.057 0.271 0.085 0.406C73.336 78.344 73.333 78.204 73.328 78.066zM73.341 78.48c0.07 1.972 0.185 3.729 0.517 4.364C74.033 82.148 73.735 80.414 73.341 78.48zM73.859 82.845c-0.043 0.167-0.108 0.281-0.208 0.319 -0.1 0.038-0.226-0.006-0.368-0.103 0.041 0.167 0.037 0.297-0.036 0.378 -0.072 0.081-0.201 0.101-0.373 0.078 0.113 0.13 0.171 0.249 0.146 0.353 -0.027 0.104-0.134 0.182-0.293 0.242 0.159 0.063 0.266 0.141 0.291 0.245 0.025 0.104-0.033 0.223-0.145 0.352 0.17-0.021 0.301 0.001 0.371 0.082 0.071 0.081 0.075 0.212 0.035 0.379 0.141-0.097 0.265-0.139 0.365-0.1 0.101 0.038 0.166 0.152 0.206 0.32 0.081-0.152 0.171-0.249 0.28-0.26 0.104-0.014 0.216 0.059 0.329 0.188 0.001-0.172 0.037-0.299 0.127-0.36 0.088-0.061 0.219-0.049 0.379 0.013 -0.078-0.152-0.105-0.281-0.055-0.377 0.05-0.095 0.173-0.146 0.344-0.166 -0.141-0.099-0.227-0.2-0.225-0.308 0-0.108 0.084-0.209 0.227-0.306 -0.17-0.021-0.291-0.072-0.342-0.167 -0.049-0.095-0.022-0.225 0.058-0.377 -0.162 0.06-0.292 0.072-0.38 0.011 -0.089-0.061-0.125-0.188-0.125-0.36 -0.112 0.128-0.224 0.199-0.33 0.185C74.029 83.092 73.938 82.998 73.859 82.845zM74.466 82.92c0.479-0.535 1.021-2.209 1.57-4.104C75.182 80.593 74.467 82.202 74.466 82.92zM76.035 78.816c0.06-0.122 0.121-0.246 0.178-0.37 -0.021-0.007-0.042-0.017-0.063-0.026C76.112 78.553 76.074 78.686 76.035 78.816zM74.972 83.27c0.672-0.252 1.931-1.483 3.297-2.905C76.688 81.541 75.306 82.634 74.972 83.27zM78.269 80.365c0.1-0.075 0.203-0.15 0.305-0.225 -0.014-0.018-0.03-0.033-0.042-0.049C78.445 80.181 78.358 80.274 78.269 80.365zM75.254 83.814c0.713 0.088 2.4-0.417 4.272-1.041C77.578 83.081 75.848 83.406 75.254 83.814zM79.526 82.774c0.11-0.016 0.225-0.034 0.337-0.052 -0.004-0.019-0.009-0.038-0.014-0.057C79.742 82.701 79.632 82.738 79.526 82.774zM75.253 84.427c0.59 0.412 2.318 0.747 4.262 1.063C77.65 84.857 75.967 84.342 75.253 84.427zM79.516 85.49c0.095 0.033 0.191 0.067 0.285 0.098 0.005-0.017 0.009-0.033 0.012-0.05C79.716 85.523 79.615 85.507 79.516 85.49zM74.965 84.97c0.333 0.637 1.708 1.738 3.282 2.924C76.888 86.464 75.638 85.226 74.965 84.97zM78.248 87.892c0.059 0.062 0.12 0.126 0.179 0.189 0.01-0.012 0.019-0.021 0.03-0.032C78.387 87.997 78.315 87.944 78.248 87.892zM74.46 85.317c-0.003 0.719 0.703 2.331 1.547 4.113C75.468 87.533 74.937 85.855 74.46 85.317zM76.007 89.431c0.021 0.075 0.043 0.152 0.063 0.229 0.015-0.006 0.025-0.01 0.039-0.014C76.076 89.574 76.041 89.5 76.007 89.431zM73.851 85.389c-0.336 0.637-0.461 2.39-0.542 4.361C73.713 87.82 74.022 86.087 73.851 85.389zM73.309 89.75c-0.017 0.075-0.031 0.151-0.047 0.228 0.014 0.003 0.025 0.003 0.039 0.005C73.303 89.906 73.307 89.826 73.309 89.75zM73.28 85.169c-0.596 0.407-1.521 1.904-2.508 3.61C72.026 87.259 73.106 85.867 73.28 85.169zM70.772 88.779c-0.053 0.063-0.108 0.13-0.162 0.193 0.013 0.008 0.024 0.014 0.038 0.024C70.688 88.924 70.731 88.851 70.772 88.779zM72.875 84.71c-0.716 0.083-2.231 0.978-3.898 2.029C70.795 85.977 72.395 85.248 72.875 84.71zM68.976 86.741c-0.086 0.036-0.174 0.072-0.263 0.11 0.006 0.013 0.015 0.027 0.023 0.04C68.817 86.842 68.897 86.791 68.976 86.741zM72.728 84.113c-0.671-0.257-2.429-0.168-4.395-0.011C70.297 84.27 72.055 84.367 72.728 84.113zM68.333 84.102c-0.107-0.01-0.217-0.02-0.323-0.029 0 0.019-0.002 0.038 0 0.056C68.119 84.119 68.228 84.11 68.333 84.102zM72.875 83.519c-0.473-0.539-2.069-1.277-3.881-2.051C70.653 82.528 72.163 83.432 72.875 83.519zM68.994 81.468c-0.104-0.067-0.209-0.134-0.315-0.201 -0.009 0.019-0.019 0.038-0.029 0.055C68.766 81.371 68.882 81.419 68.994 81.468zM73.284 83.061c-0.169-0.698-1.241-2.094-2.485-3.623C71.775 81.15 72.692 82.651 73.284 83.061zM70.799 79.438c-0.067-0.115-0.132-0.232-0.199-0.349 -0.019 0.013-0.039 0.026-0.056 0.039C70.628 79.231 70.716 79.335 70.799 79.438z" fill="url(#SvgjsRadialGradient3319)" opacity="0.7"></path><path id="SvgjsPath3322" d="M74.886 78.086c-0.024-0.003-0.047-0.007-0.07-0.01 -0.007 0.138-0.016 0.277-0.024 0.414C74.822 78.356 74.855 78.22 74.886 78.086zM74.791 78.489c-0.442 1.922-0.787 3.649-0.629 4.35C74.511 82.211 74.671 80.459 74.791 78.489zM74.161 82.839c-0.084 0.15-0.176 0.243-0.283 0.254 -0.106 0.01-0.216-0.064-0.327-0.195 -0.004 0.171-0.042 0.297-0.133 0.356 -0.09 0.059-0.221 0.045-0.38-0.021 0.076 0.155 0.101 0.285 0.049 0.378 -0.053 0.094-0.176 0.142-0.345 0.158 0.137 0.101 0.22 0.204 0.217 0.312 -0.002 0.107-0.089 0.207-0.231 0.302 0.169 0.024 0.29 0.079 0.337 0.174 0.048 0.096 0.018 0.225-0.064 0.375 0.161-0.057 0.292-0.065 0.379-0.002 0.087 0.063 0.12 0.19 0.116 0.363 0.117-0.125 0.229-0.196 0.337-0.179 0.105 0.014 0.194 0.113 0.27 0.268 0.045-0.167 0.113-0.279 0.216-0.315 0.101-0.036 0.225 0.01 0.363 0.111 -0.036-0.167-0.029-0.299 0.044-0.378 0.073-0.079 0.205-0.096 0.376-0.072 -0.111-0.132-0.168-0.251-0.138-0.355 0.028-0.104 0.136-0.18 0.299-0.237 -0.16-0.064-0.263-0.145-0.288-0.25 -0.023-0.105 0.037-0.223 0.154-0.349 -0.172 0.016-0.301-0.006-0.37-0.088 -0.07-0.082-0.072-0.214-0.028-0.379 -0.142 0.094-0.268 0.134-0.367 0.093C74.261 83.122 74.199 83.007 74.161 82.839zM74.729 83.07c0.601-0.394 1.557-1.871 2.578-3.558C76.022 81.007 74.916 82.375 74.729 83.07zM77.307 79.511c0.089-0.102 0.18-0.206 0.268-0.311 -0.019-0.013-0.036-0.028-0.055-0.042C77.449 79.277 77.378 79.396 77.307 79.511zM75.127 83.538c0.715-0.07 2.25-0.934 3.937-1.953C77.231 82.312 75.614 83.01 75.127 83.538zM79.063 81.584c0.117-0.046 0.235-0.092 0.354-0.138 -0.01-0.021-0.021-0.04-0.028-0.059C79.281 81.453 79.173 81.52 79.063 81.584zM75.259 84.137c0.666 0.27 2.426 0.218 4.395 0.101C77.693 84.03 75.938 83.896 75.259 84.137zM79.654 84.237c0.112 0.013 0.226 0.025 0.339 0.037 0-0.02 0.001-0.039 0.002-0.058C79.881 84.223 79.766 84.23 79.654 84.237zM75.1 84.729c0.462 0.551 2.046 1.321 3.842 2.129C77.303 85.763 75.811 84.831 75.1 84.729zM78.941 86.858c0.083 0.057 0.167 0.114 0.25 0.168 0.009-0.015 0.017-0.03 0.025-0.045C79.126 86.942 79.032 86.9 78.941 86.858zM74.68 85.179c0.156 0.701 1.2 2.12 2.414 3.674C76.151 87.119 75.264 85.599 74.68 85.179zM77.094 88.85c0.042 0.075 0.083 0.153 0.125 0.229 0.012-0.009 0.024-0.016 0.037-0.024C77.202 88.987 77.147 88.917 77.094 88.85zM74.103 85.383c-0.188 0.693 0.076 2.433 0.43 4.373C74.502 87.784 74.424 86.026 74.103 85.383zM74.532 89.756c0.001 0.078 0.003 0.158 0.003 0.238 0.014-0.002 0.027-0.004 0.041-0.004C74.562 89.913 74.547 89.833 74.532 89.756zM73.496 85.294c-0.49 0.528-1.064 2.189-1.652 4.072C72.733 87.607 73.481 86.013 73.496 85.294zM71.843 89.366c-0.035 0.068-0.07 0.138-0.104 0.208 0.012 0.006 0.023 0.009 0.036 0.015C71.797 89.516 71.821 89.439 71.843 89.366zM73 84.934c-0.68 0.239-1.962 1.446-3.357 2.838C71.25 86.628 72.652 85.563 73 84.934zM69.644 87.772c-0.067 0.047-0.137 0.098-0.205 0.145 0.01 0.011 0.02 0.02 0.029 0.032C69.525 87.89 69.585 87.832 69.644 87.772zM72.728 84.385c-0.713-0.104-2.407 0.368-4.291 0.952C70.392 85.071 72.125 84.781 72.728 84.385zM68.437 85.339c-0.092 0.013-0.187 0.024-0.283 0.039 0.003 0.015 0.008 0.03 0.013 0.044C68.258 85.396 68.348 85.366 68.437 85.339zM72.741 83.772c-0.582-0.423-2.303-0.792-4.242-1.149C70.353 83.294 72.025 83.843 72.741 83.772zM68.499 82.623c-0.101-0.037-0.205-0.075-0.305-0.112 -0.005 0.019-0.011 0.037-0.015 0.054C68.288 82.584 68.395 82.604 68.499 82.623zM73.038 83.235c-0.318-0.643-1.668-1.769-3.219-2.986C71.147 81.704 72.372 82.968 73.038 83.235zM69.818 80.25c-0.083-0.091-0.167-0.183-0.251-0.275 -0.014 0.016-0.029 0.031-0.042 0.046C69.624 80.097 69.723 80.173 69.818 80.25zM73.551 82.899c0.017-0.718-0.656-2.344-1.464-4.142C72.587 80.663 73.085 82.35 73.551 82.899zM72.087 78.757c-0.034-0.128-0.067-0.259-0.101-0.389 -0.021 0.007-0.043 0.015-0.063 0.023C71.977 78.513 72.033 78.636 72.087 78.757z" fill="url(#SvgjsRadialGradient3323)" opacity="0.4"></path><path id="SvgjsPath3326" d="M76.354 84c0 1.3-1.053 2.353-2.353 2.353 -1.299 0-2.354-1.053-2.354-2.353 0-1.299 1.055-2.354 2.354-2.354C75.301 81.646 76.354 82.7 76.354 84z" fill="#472500" stroke-width="none" opacity="1" stroke="none"></path><path id="SvgjsPath3327" d="M76.354 84c0 1.3-1.053 2.353-2.353 2.353 -1.299 0-2.354-1.053-2.354-2.353 0-1.299 1.055-2.354 2.354-2.354C75.301 81.646 76.354 82.7 76.354 84z" fill="#000000" stroke-width="none" opacity="0.9"></path><path id="SvgjsPath3328" d="M70.717 86.748c0.449-0.302 1.059-0.18 1.36 0.268 0.301 0.449 0.182 1.059-0.268 1.36 -0.45 0.303-1.059 0.183-1.36-0.267C70.148 87.66 70.268 87.049 70.717 86.748L70.717 86.748z" fill="url(#SvgjsLinearGradient3329)" opacity="0.5"></path><path id="SvgjsPath3332" d="M75.86 83.672c-0.251 0.374-0.969 0.331-1.606-0.096 -0.638-0.427-0.95-1.078-0.7-1.451l0-0.001c0.25-0.374 0.969-0.331 1.605 0.097C75.798 82.647 76.11 83.297 75.86 83.672 75.86 83.672 75.86 83.672 75.86 83.672z" fill="url(#SvgjsLinearGradient3333)" opacity="0.5"></path><path id="SvgjsPath3336" d="M78.716 82.673c-0.568 0.873-2.036 0.925-3.275 0.117 -1.24-0.808-1.784-2.17-1.215-3.043 0.568-0.872 2.036-0.924 3.275-0.117C78.74 80.439 79.284 81.802 78.716 82.673L78.716 82.673z" fill="url(#SvgjsLinearGradient3337)" opacity="0.75"></path></g></g></g><g id="svga-group-eyesfront-left"><path id="SvgjsPath3284" d="M55.8 79.995c0 13.808 8.06 31.404 18 31.404s18-11.191 18-24.999c0-13.809-8.06-25.001-18-25.001S55.8 66.187 55.8 79.995zM61.104 81.51c9.995-5.749 17.37-4.63 25.624 3.237 0.161 0.571 0.257 1.157 0.257 1.758 0 1.481-0.523 2.881-1.44 4.135 -4.077 0.038-16.966 0.706-18.935-0.303C63.798 88.896 61.287 82.968 61.104 81.51z" fill="#753915" stroke-width="none" opacity="1"></path><path id="SvgjsPath3285" d="M61.209 81.995c0.522 1.979 2.833 7.026 5.401 8.342 1.969 1.009 14.857 0.341 18.935 0.303 0.917-1.253 1.44-2.653 1.44-4.135 0-0.601-0.096-1.187-0.257-1.758 -8.166-7.784-15.476-8.95-25.31-3.407 1.968-5.724 8.522-9.952 16.34-9.987 9.393-0.04 17.018 5.981 17.041 13.451 0.023 7.469-7.572 13.554-16.961 13.596 -9.393 0.04-17.016-5.981-17.039-13.45C60.797 83.934 60.945 82.948 61.209 81.995z" fill="url(#SvgjsRadialGradient3286)" opacity="1"></path><path id="SvgjsPath3290" d="M66.61 90.337c-2.813-1.441-5.323-7.369-5.506-8.827 9.995-5.749 17.37-4.63 25.624 3.237 0.161 0.571 0.257 1.157 0.257 1.758 0 1.481-0.523 2.881-1.44 4.135C81.468 90.678 68.579 91.346 66.61 90.337z" fill="url(#SvgjsRadialGradient3291)" opacity="1"></path><path id="SvgjsPath3294" d="M61.138 78.389c3.414-1.34 17.798-6.314 25.648 4.274C77.8 72.562 65.582 77.218 61.138 78.389z" fill="#471b00" stroke-width="none" opacity="1"></path><path id="SvgjsPath3295" d="M58.8 80.972c1.217 2.342 6.361 10.159 7.561 10.218 10.059 0.608 16.311-0.248 20.313-0.813 -1.499-0.19-17.826 0.781-20.063-0.313 -2.813-1.375-5.323-7.031-5.506-8.423 10.251-5.626 17.743-4.379 26.256 3.659C79.06 72.701 61.853 78.441 58.8 80.972z" fill="#000000" stroke-width="none" opacity="1"></path></g></g><g id="svga-group-eyes-right" ><g id="svga-group-eyesback-right"><path id="SvgjsPath3267" d="M112.872 84.747c-0.161 0.571-0.257 1.157-0.257 1.758 0 1.481 0.523 2.881 1.44 4.135 4.077 0.038 16.966 0.706 18.935-0.303 2.813-1.441 5.323-7.369 5.506-8.827C128.501 75.761 121.126 76.879 112.872 84.747z" fill="url(#SvgjsRadialGradient3268)" opacity="1"></path></g><g id="svga-group-eyesiriswrapper-right" transform="translate(-0.75 0.5)"><g id="svga-group-eyesiriscontrol-right" transform="translate(1 0)"><g id="svga-group-eyesiris-right" ><path id="SvgjsPath3340" d="M132 84c0 3.313-2.687 6-5.999 6 -3.313 0-6.001-2.687-6.001-6l0 0c0-3.314 2.688-6 6.001-6C129.313 77.999 132 80.686 132 84L132 84z" fill="#472500" stroke-width="none" opacity="1" stroke="none"></path><path id="SvgjsPath3341" d="M125.328 78.066c-0.023 0.003-0.047 0.006-0.071 0.009 0.029 0.135 0.058 0.271 0.085 0.406C125.336 78.344 125.333 78.204 125.328 78.066zM125.341 78.48c0.069 1.972 0.185 3.729 0.518 4.364C126.033 82.148 125.735 80.414 125.341 78.48zM125.858 82.845c-0.042 0.167-0.108 0.281-0.207 0.319 -0.101 0.038-0.226-0.006-0.367-0.103 0.04 0.167 0.036 0.297-0.036 0.378 -0.072 0.081-0.201 0.101-0.372 0.078 0.112 0.13 0.171 0.249 0.146 0.353 -0.028 0.104-0.134 0.182-0.293 0.242 0.158 0.063 0.265 0.141 0.29 0.245 0.025 0.104-0.032 0.223-0.145 0.352 0.17-0.021 0.3 0.001 0.37 0.082 0.071 0.081 0.075 0.212 0.035 0.379 0.141-0.097 0.266-0.139 0.365-0.1 0.102 0.038 0.166 0.152 0.206 0.32 0.08-0.152 0.172-0.249 0.279-0.26 0.105-0.014 0.217 0.059 0.329 0.188 0.002-0.172 0.037-0.299 0.128-0.36 0.087-0.061 0.219-0.049 0.379 0.013 -0.078-0.152-0.104-0.281-0.056-0.377 0.051-0.095 0.174-0.146 0.345-0.166 -0.141-0.099-0.228-0.2-0.225-0.308 -0.001-0.108 0.084-0.209 0.227-0.306 -0.171-0.021-0.291-0.072-0.342-0.167 -0.05-0.095-0.022-0.225 0.057-0.377 -0.161 0.06-0.291 0.072-0.38 0.011s-0.124-0.188-0.125-0.36c-0.111 0.128-0.224 0.199-0.33 0.185C126.029 83.092 125.938 82.998 125.858 82.845zM126.466 82.92c0.479-0.535 1.021-2.209 1.569-4.104C127.182 80.593 126.468 82.202 126.466 82.92zM128.035 78.816c0.06-0.122 0.121-0.246 0.179-0.37 -0.021-0.007-0.042-0.017-0.063-0.026C128.112 78.553 128.074 78.686 128.035 78.816zM126.972 83.27c0.673-0.252 1.932-1.483 3.298-2.905C128.688 81.541 127.307 82.634 126.972 83.27zM130.27 80.365c0.1-0.075 0.202-0.15 0.305-0.225 -0.015-0.018-0.03-0.033-0.042-0.049C130.445 80.181 130.358 80.274 130.27 80.365zM127.255 83.814c0.713 0.088 2.399-0.417 4.271-1.041C129.578 83.081 127.848 83.406 127.255 83.814zM131.526 82.774c0.11-0.016 0.225-0.034 0.337-0.052 -0.005-0.019-0.009-0.038-0.014-0.057C131.742 82.701 131.632 82.738 131.526 82.774zM127.253 84.427c0.591 0.412 2.318 0.747 4.263 1.063C129.65 84.857 127.967 84.342 127.253 84.427zM131.516 85.49c0.095 0.033 0.19 0.067 0.285 0.098 0.005-0.017 0.009-0.033 0.013-0.05C131.716 85.523 131.614 85.507 131.516 85.49zM126.965 84.97c0.332 0.637 1.708 1.738 3.282 2.924C128.889 86.464 127.638 85.226 126.965 84.97zM130.248 87.892c0.059 0.062 0.119 0.126 0.178 0.189 0.01-0.012 0.02-0.021 0.031-0.032C130.387 87.997 130.315 87.944 130.248 87.892zM126.461 85.317c-0.003 0.719 0.702 2.331 1.547 4.113C127.468 87.533 126.937 85.855 126.461 85.317zM128.008 89.431c0.021 0.075 0.043 0.152 0.063 0.229 0.015-0.006 0.026-0.01 0.039-0.014C128.076 89.574 128.041 89.5 128.008 89.431zM125.851 85.389c-0.336 0.637-0.461 2.39-0.542 4.361C125.713 87.82 126.022 86.087 125.851 85.389zM125.309 89.75c-0.017 0.075-0.031 0.151-0.047 0.228 0.014 0.003 0.024 0.003 0.039 0.005C125.303 89.906 125.307 89.826 125.309 89.75zM125.279 85.169c-0.596 0.407-1.521 1.904-2.508 3.61C124.026 87.259 125.105 85.867 125.279 85.169zM122.771 88.779c-0.052 0.063-0.107 0.13-0.161 0.193 0.013 0.008 0.024 0.014 0.037 0.024C122.688 88.924 122.731 88.851 122.771 88.779zM124.874 84.71c-0.716 0.083-2.23 0.978-3.897 2.029C122.795 85.977 124.395 85.248 124.874 84.71zM120.977 86.741c-0.087 0.036-0.175 0.072-0.263 0.11 0.006 0.013 0.014 0.027 0.023 0.04C120.817 86.842 120.897 86.791 120.977 86.741zM124.729 84.113c-0.672-0.257-2.43-0.168-4.396-0.011C122.298 84.27 124.055 84.367 124.729 84.113zM120.333 84.102c-0.106-0.01-0.217-0.02-0.322-0.029 -0.001 0.019-0.003 0.038-0.001 0.056C120.119 84.119 120.228 84.11 120.333 84.102zM124.876 83.519c-0.474-0.539-2.069-1.277-3.882-2.051C122.653 82.528 124.163 83.432 124.876 83.519zM120.994 81.468c-0.104-0.067-0.21-0.134-0.315-0.201 -0.009 0.019-0.019 0.038-0.028 0.055C120.766 81.371 120.883 81.419 120.994 81.468zM125.284 83.061c-0.169-0.698-1.241-2.094-2.485-3.623C123.775 81.15 124.692 82.651 125.284 83.061zM122.799 79.438c-0.067-0.115-0.133-0.232-0.198-0.349 -0.019 0.013-0.039 0.026-0.057 0.039C122.629 79.231 122.716 79.335 122.799 79.438z" fill="url(#SvgjsRadialGradient3342)" opacity="0.7"></path><path id="SvgjsPath3345" d="M126.886 78.086c-0.024-0.003-0.047-0.007-0.07-0.01 -0.008 0.138-0.016 0.277-0.024 0.414C126.821 78.356 126.854 78.22 126.886 78.086zM126.791 78.489c-0.443 1.922-0.787 3.649-0.63 4.35C126.511 82.211 126.671 80.459 126.791 78.489zM126.161 82.839c-0.084 0.15-0.177 0.243-0.283 0.254 -0.106 0.01-0.216-0.064-0.327-0.195 -0.004 0.171-0.042 0.297-0.133 0.356 -0.09 0.059-0.221 0.045-0.38-0.021 0.075 0.155 0.101 0.285 0.049 0.378 -0.054 0.094-0.176 0.142-0.346 0.158 0.138 0.101 0.22 0.204 0.217 0.312 -0.002 0.107-0.089 0.207-0.23 0.302 0.17 0.024 0.289 0.079 0.337 0.174 0.048 0.096 0.018 0.225-0.064 0.375 0.162-0.057 0.293-0.065 0.38-0.002 0.087 0.063 0.12 0.19 0.115 0.363 0.117-0.125 0.229-0.196 0.337-0.179 0.105 0.014 0.194 0.113 0.27 0.268 0.046-0.167 0.113-0.279 0.216-0.315 0.101-0.036 0.226 0.01 0.363 0.111 -0.035-0.167-0.028-0.299 0.045-0.378 0.072-0.079 0.204-0.096 0.375-0.072 -0.11-0.132-0.168-0.251-0.138-0.355 0.027-0.104 0.136-0.18 0.299-0.237 -0.159-0.064-0.263-0.145-0.288-0.25 -0.022-0.105 0.038-0.223 0.154-0.349 -0.172 0.016-0.302-0.006-0.37-0.088 -0.07-0.082-0.072-0.214-0.027-0.379 -0.143 0.094-0.269 0.134-0.368 0.093C126.262 83.122 126.198 83.007 126.161 82.839zM126.729 83.07c0.601-0.394 1.557-1.871 2.578-3.558C128.022 81.007 126.916 82.375 126.729 83.07zM129.307 79.511c0.089-0.102 0.18-0.206 0.269-0.311 -0.02-0.013-0.037-0.028-0.056-0.042C129.449 79.277 129.378 79.396 129.307 79.511zM127.127 83.538c0.715-0.07 2.249-0.934 3.937-1.953C129.231 82.312 127.614 83.01 127.127 83.538zM131.063 81.584c0.116-0.046 0.234-0.092 0.354-0.138 -0.01-0.021-0.021-0.04-0.028-0.059C131.281 81.453 131.173 81.52 131.063 81.584zM127.259 84.137c0.666 0.27 2.426 0.218 4.396 0.101C129.692 84.03 127.938 83.896 127.259 84.137zM131.654 84.237c0.111 0.013 0.226 0.025 0.339 0.037 0.001-0.02 0.001-0.039 0.002-0.058C131.882 84.223 131.766 84.23 131.654 84.237zM127.1 84.729c0.463 0.551 2.046 1.321 3.842 2.129C129.303 85.763 127.811 84.831 127.1 84.729zM130.941 86.858c0.082 0.057 0.167 0.114 0.25 0.168 0.009-0.015 0.018-0.03 0.024-0.045C131.126 86.942 131.032 86.9 130.941 86.858zM126.681 85.179c0.155 0.701 1.199 2.12 2.413 3.674C128.151 87.119 127.265 85.599 126.681 85.179zM129.095 88.85c0.041 0.075 0.082 0.153 0.124 0.229 0.012-0.009 0.023-0.016 0.037-0.024C129.202 88.987 129.146 88.917 129.095 88.85zM126.103 85.383c-0.188 0.693 0.076 2.433 0.43 4.373C126.502 87.784 126.424 86.026 126.103 85.383zM126.532 89.756c0.001 0.078 0.003 0.158 0.003 0.238 0.015-0.002 0.026-0.004 0.04-0.004C126.562 89.913 126.547 89.833 126.532 89.756zM125.495 85.294c-0.489 0.528-1.064 2.189-1.652 4.072C124.733 87.607 125.48 86.013 125.495 85.294zM123.843 89.366c-0.035 0.068-0.069 0.138-0.104 0.208 0.012 0.006 0.022 0.009 0.035 0.015C123.797 89.516 123.821 89.439 123.843 89.366zM125 84.934c-0.68 0.239-1.961 1.446-3.356 2.838C123.25 86.628 124.652 85.563 125 84.934zM121.644 87.772c-0.067 0.047-0.138 0.098-0.205 0.145 0.01 0.011 0.02 0.02 0.029 0.032C121.525 87.89 121.586 87.832 121.644 87.772zM124.728 84.385c-0.713-0.104-2.406 0.368-4.29 0.952C122.392 85.071 124.126 84.781 124.728 84.385zM120.438 85.339c-0.093 0.013-0.188 0.024-0.283 0.039 0.004 0.015 0.008 0.03 0.013 0.044C120.258 85.396 120.348 85.366 120.438 85.339zM124.741 83.772c-0.582-0.423-2.303-0.792-4.242-1.149C122.353 83.294 124.025 83.843 124.741 83.772zM120.499 82.623c-0.101-0.037-0.205-0.075-0.305-0.112 -0.006 0.019-0.011 0.037-0.015 0.054C120.287 82.584 120.395 82.604 120.499 82.623zM125.038 83.235c-0.318-0.643-1.669-1.769-3.22-2.986C123.147 81.704 124.372 82.968 125.038 83.235zM121.818 80.25c-0.083-0.091-0.167-0.183-0.251-0.275 -0.015 0.016-0.028 0.031-0.043 0.046C121.623 80.097 121.724 80.173 121.818 80.25zM125.551 82.899c0.017-0.718-0.656-2.344-1.464-4.142C124.588 80.663 125.085 82.35 125.551 82.899zM124.087 78.757c-0.034-0.128-0.067-0.259-0.102-0.389 -0.021 0.007-0.043 0.015-0.063 0.023C123.977 78.513 124.033 78.636 124.087 78.757z" fill="url(#SvgjsRadialGradient3346)" opacity="0.4"></path><path id="SvgjsPath3349" d="M128.354 84c0 1.3-1.054 2.353-2.353 2.353 -1.3 0-2.354-1.053-2.354-2.353 0-1.299 1.055-2.354 2.354-2.354C127.302 81.646 128.354 82.7 128.354 84z" fill="#472500" stroke-width="none" opacity="1" stroke="none"></path><path id="SvgjsPath3350" d="M128.354 84c0 1.3-1.054 2.353-2.353 2.353 -1.3 0-2.354-1.053-2.354-2.353 0-1.299 1.055-2.354 2.354-2.354C127.302 81.646 128.354 82.7 128.354 84z" fill="#000000" stroke-width="none" opacity="0.9"></path><path id="SvgjsPath3351" d="M122.718 86.748c0.448-0.302 1.059-0.18 1.359 0.268 0.302 0.449 0.183 1.059-0.268 1.36 -0.45 0.303-1.059 0.183-1.359-0.267C122.148 87.66 122.268 87.049 122.718 86.748L122.718 86.748z" fill="url(#SvgjsLinearGradient3352)" opacity="0.5"></path><path id="SvgjsPath3355" d="M127.859 83.672c-0.251 0.374-0.969 0.331-1.605-0.096 -0.638-0.427-0.95-1.078-0.7-1.451l0.001-0.001c0.25-0.374 0.969-0.331 1.605 0.097C127.798 82.647 128.11 83.297 127.859 83.672 127.859 83.672 127.859 83.672 127.859 83.672z" fill="url(#SvgjsLinearGradient3356)" opacity="0.5"></path><path id="SvgjsPath3359" d="M130.717 82.673c-0.569 0.873-2.036 0.925-3.276 0.117 -1.239-0.808-1.784-2.17-1.215-3.043 0.568-0.872 2.035-0.924 3.275-0.117C130.74 80.439 131.284 81.802 130.717 82.673L130.717 82.673z" fill="url(#SvgjsLinearGradient3360)" opacity="0.75"></path></g></g></g><g id="svga-group-eyesfront-right"><path id="SvgjsPath3305" d="M125.801 61.399c-9.94 0-18 11.193-18 25.001 0 13.808 8.06 24.999 18 24.999s18-16.226 18-30.033C143.801 67.558 135.741 61.399 125.801 61.399zM132.99 90.337c-1.969 1.009-14.857 0.341-18.935 0.303 -0.917-1.253-1.44-2.653-1.44-4.135 0-0.601 0.096-1.187 0.257-1.758 8.254-7.868 15.629-8.986 25.624-3.237C138.313 82.968 135.803 88.896 132.99 90.337z" fill="#753915" stroke-width="none" opacity="1"></path><path id="SvgjsPath3306" d="M138.392 81.995c-0.522 1.979-2.833 7.026-5.401 8.342 -1.969 1.009-14.857 0.341-18.935 0.303 -0.917-1.253-1.44-2.653-1.44-4.135 0-0.601 0.096-1.187 0.257-1.758 8.166-7.784 15.476-8.95 25.31-3.407 -1.968-5.724-8.522-9.952-16.34-9.987 -9.393-0.04-17.018 5.981-17.041 13.451 -0.023 7.469 7.572 13.554 16.961 13.596 9.393 0.04 17.016-5.981 17.039-13.45C138.804 83.934 138.655 82.948 138.392 81.995z" fill="url(#SvgjsRadialGradient3307)" opacity="1"></path><path id="SvgjsPath3311" d="M132.99 90.337c2.813-1.441 5.323-7.369 5.506-8.827 -9.995-5.749-17.37-4.63-25.624 3.237 -0.161 0.571-0.257 1.157-0.257 1.758 0 1.481 0.523 2.881 1.44 4.135C118.133 90.678 131.021 91.346 132.99 90.337z" fill="url(#SvgjsRadialGradient3312)" opacity="1"></path><path id="SvgjsPath3315" d="M112.814 82.664c7.85-10.588 22.234-5.615 25.648-4.274C134.019 77.218 121.801 72.562 112.814 82.664z" fill="#471b00" stroke-width="none" opacity="1"></path><path id="SvgjsPath3316" d="M140.801 80.972c-1.217 2.342-6.361 10.159-7.561 10.218 -10.059 0.608-16.311-0.248-20.313-0.813 1.499-0.19 17.826 0.781 20.063-0.313 2.813-1.375 5.323-7.031 5.506-8.423 -10.251-5.626-17.743-4.379-26.256 3.659C120.541 72.701 137.748 78.441 140.801 80.972z" fill="#000000" stroke-width="none" opacity="1"></path></g></g><g id="svga-group-facehighlight-single" ><path id="SvgjsPath2885" d="M141 113.974c0.035 22.622-18.292 40.994-40.938 41.025 -22.642 0.037-41.028-18.273-41.063-40.9 -0.035-22.62 18.292-41.064 40.937-41.1C122.579 72.964 140.967 91.349 141 113.974z" fill="url(#SvgjsRadialGradient2886)" opacity="1"></path><path id="SvgjsPath2889" d="M137.5 53.999c0 20.711-16.789 37.5-37.499 37.5 -20.711 0-37.501-16.789-37.501-37.5s16.79-37.5 37.501-37.5C120.711 16.499 137.5 33.288 137.5 53.999z" fill="url(#SvgjsRadialGradient2890)" opacity="1"></path></g><g id="svga-group-eyebrows-left" ><path id="SvgjsPath2910" d="M54 74.189c9.954-9.974 16.761-5.915 30.589-3.264 0.845 0.162 6.32 1.539 5.31 3.469 -0.483 0.924-2.036 0.814-2.903 0.798C73.308 74.936 66.652 65.197 54 74.189z" fill="#2a232b" stroke-width="none" opacity="1"></path></g><g id="svga-group-eyebrows-right" ><path id="SvgjsPath2911" d="M146 74.189c-9.953-9.974-16.761-5.915-30.589-3.264 -0.846 0.162-6.32 1.539-5.311 3.469 0.483 0.924 2.036 0.814 2.903 0.798C126.691 74.936 133.348 65.197 146 74.189z" fill="#2a232b" stroke-width="none" opacity="1"></path></g><g id="svga-group-nose-single" ><path id="SvgjsPath3424" d="M99.757 119.999c-0.91 0-1.88 0.006-2.721-0.371 -0.899-0.405-1.498-0.567-2.429-0.902 -0.899-0.324-1.98 0.466-2.88 0.541 -0.728 0.06-1.559-0.149-2.003-0.719 -1.499-1.917 0.286-3.096 0.286-3.096s-0.583 1.346-0.212 1.942c0.319 0.509 0.789 0.925 1.369 1.063 0.968 0.235 1.889-0.476 2.839-0.55 1.062-0.083 1.833-0.102 2.602 0.519 0.767 0.619 1.606 0.737 2.582 0.787 0.906 0.049 1.857 0.088 2.708-0.263 0.743-0.303 1.365-0.835 2.062-1.226 1.482-0.831 2.647 0.212 4.194 0.633 1.238 0.338 2.575-0.86 2.09-2.225 -0.277-0.777-0.232-1.24-0.232-1.24s1.181 0.535 1.11 1.854c-0.089 1.642-1.521 2.794-3.137 2.361 -0.794-0.21-1.65-0.808-2.493-0.656 -0.857 0.153-1.517 0.154-2.229 0.622C102.187 119.781 101.047 119.999 99.757 119.999z" fill="#471b00" stroke-width="none" opacity="1"></path><path id="SvgjsPath3425" d="M93.316 110.211c0 0 3.245-4.518 6.193-4.573 2.73-0.05 6.324 3.968 6.324 3.968s-3.311-1.387-6.588-1.156C96.32 108.655 93.316 110.211 93.316 110.211z" fill="#6d320e" stroke-width="none" opacity="1"></path></g><g id="svga-group-beardwrap" ><g id="svga-group-beard-single" ><path id="SvgjsPath3492" d="M99.98 164.89c-11.04-0.87-18.86-4.46-27.91-12.81 -8.87-7.66-15.76-19.16-17.25-25.69 33.99 39.06 57.53 37.59 90.33 0.01C141.03 143.32 118.59 164.88 99.98 164.89z" fill="#2a232b" stroke-width="none" opacity="1"></path><path id="SvgjsPath3493" d="M144.33 129.43c-5.72 15.85-26.28 35.55-44.35 35.55 -11.82-0.93-19.67-5.18-27.97-12.84 -9.48-8.2-16.15-20.08-17.36-26.12 0.96 1.1 1.9 2.16 2.82 3.17 28.52 44.66 59.27 42.67 87.18-2.16L144.33 129.43z" fill="#1b141c" stroke-width="none" opacity="1"></path><path id="SvgjsPath3494" d="M87.78 152.64c-8.27-3.53-19.04-10.36-33.13-26.61 1.21 6.04 7.88 17.92 17.36 26.12 8.3 7.66 16.15 11.91 27.97 12.84 19.39 0 41.66-22.7 45.37-38.96C129.64 144.08 109.1 161.87 87.78 152.64zM72.78 151.29c-7.61-6.46-15.46-18.03-17.45-24.03 31.39 39.14 57.67 37.73 89.35 0C139.88 139.03 110.01 185.89 72.78 151.29z" fill="#000000" stroke-width="none" opacity="1"></path></g></g><g id="svga-group-mustache-single" ><path id="SvgjsPath3019" d="M100,18.13L100,18.13L100,18.13L100,18.13z" fill="#2a232b" stroke-width="none" opacity="1"></path></g><g id="svga-group-hair-front" ><path id="SvgjsPath3621" d="M100,18.13L100,18.13L100,18.13L100,18.13z" fill="#2a232b" stroke-width="none" opacity="1"></path></g><g id="svga-group-glasses-single" ><path id="SvgjsPath3365" d="M52.7 78.99c11.69 3.22 28.34-0.15 40.03 7.14 -0.08 0.44-0.16 0.87-0.25 1.31 -0.64 2.91-3.23 4.82-6.36 5.38 -8.44 1.51-22.57 1.32-30.84 0.74 -1.19-0.08-2.16-0.9-2.36-2C52.11 87.2 51.8 83.54 52.7 78.99zM106.69 80.35c0.05 2.48 0.32 4.73 0.83 7.1 0.63 2.91 3.23 4.82 6.36 5.38 8.44 1.51 22.57 1.32 30.84 0.74 1.19-0.08 2.16-0.9 2.36-2 0.31-1.69 0.55-3.28 0.67-4.85 -11.7-8.04-28.85-4.44-40.84-7.71C106.77 79.44 106.68 79.89 106.69 80.35z" fill="#ffffff" stroke-width="none" opacity="0.2"></path><path id="SvgjsPath3366" d="M93.31 80.35c-0.05 2.02-0.24 3.88-0.58 5.78 -11.69-7.3-28.35-3.92-40.03-7.14 0.03-0.12 0.04-0.24 0.07-0.37 0.26-1.24 1.34-2.15 2.68-2.28 12.7-1.18 21.35-1.08 33.89-0.11C91.61 76.42 93.36 78.22 93.31 80.35zM147.24 78.63c-0.26-1.24-1.34-2.15-2.68-2.28 -12.7-1.18-21.35-1.08-33.89-0.11 -1.78 0.14-3.22 1.27-3.75 2.78 11.98 3.27 29.14-0.33 40.84 7.71C147.96 84.13 147.85 81.57 147.24 78.63z" fill="#ffffff" stroke-width="none" opacity="0.4"></path><path id="SvgjsPath3367" d="M153 78.74h-5.22c-0.02-0.07-0.02-0.14-0.04-0.21 -0.3-1.44-1.57-2.52-3.13-2.67 -12.9-1.2-21.6-1.07-33.98-0.11 -0.15 0.01-0.29 0.05-0.43 0.07l0.03-0.03c0 0-0.12 0.03-0.33 0.08 -0.09 0.02-0.19 0.04-0.28 0.06 -1.08 0.24-3.42 0.7-5.37 0.76 -3.91 0.12-4.75 0.11-8.5 0 -1.95-0.06-4.29-0.52-5.37-0.76 -0.09-0.03-0.18-0.04-0.28-0.06 -0.21-0.05-0.33-0.08-0.33-0.08l0.03 0.03c-0.14-0.02-0.28-0.06-0.43-0.07 -12.39-0.96-21.09-1.09-33.98 0.11 -1.56 0.15-2.83 1.23-3.13 2.67 -0.02 0.07-0.02 0.14-0.04 0.21H47v2.92h4.79c-0.17 1.7-0.19 3.33-0.07 4.97h1.06c-0.2-2.54-0.09-5.05 0.51-7.92 0.21-1.02 1.1-1.78 2.21-1.88 6.3-0.59 11.69-0.86 16.98-0.86 4.97 0 9.99 0.22 16.81 0.75 2 0.15 3.53 1.74 3.49 3.61 -0.05 2.2-0.28 4.22-0.69 6.29h1.07c0.39-2.02 0.62-4.02 0.67-6.27 0.01-0.66-0.13-1.28-0.39-1.85 0.33-0.07 0.85-0.16 1.51-0.21 2.51-0.18 8.07-0.14 10.11 0 0.66 0.05 1.19 0.14 1.51 0.21 -0.26 0.57-0.41 1.19-0.39 1.85 0.05 2.25 0.28 4.25 0.67 6.27h1.07c-0.41-2.07-0.64-4.09-0.68-6.29 -0.04-1.87 1.49-3.46 3.49-3.61 6.82-0.53 11.84-0.75 16.81-0.75 5.29 0 10.69 0.27 16.98 0.86 1.11 0.1 2 0.86 2.21 1.88 0.6 2.87 0.71 5.38 0.51 7.92h1.05c0.13-1.64 0.1-3.27-0.07-4.97H153V78.74z" fill="#26120b" stroke-width="none" opacity="1"></path></g></g></g><rect id="SvgjsRect1036" width="200" height="15" x="0" y="185" fill="#ecf0f1" opacity="0.5" style="display:none;"></rect><text id="SvgjsText1037" font-family="&quot;Roboto&quot;, &quot;Helvetica Neue&quot;, Helvetica, Arial, sans-serif" style="font-size:0.84em;font-family:&quot;Roboto&quot;, &quot;Helvetica Neue&quot;, Helvetica, Arial, sans-serif;text-anchor:middle;font-weight:400;display:none;" font-size="0.84em" text-anchor="middle" font-weight="400" fill="#000000" x="100" y="185"><tspan id="SvgjsTspan1038" dy="1.2em" x="100" style="font-size:0.84em;font-family:&quot;Roboto&quot;, &quot;Helvetica Neue&quot;, Helvetica, Arial, sans-serif;text-anchor:middle;font-weight:400;">Created on AvatarMaker.com</tspan></text></g><defs id="SvgjsDefs1001"><radialGradient id="SvgjsRadialGradient2886" cx="100" cy="114" r="41" gradientUnits="userSpaceOnUse" class="svga-on-canvas-facehighlight-gradient-single-0"><stop id="SvgjsStop2887" stop-opacity="0.5" stop-color="#844925" offset="0" ></stop><stop id="SvgjsStop2888" stop-opacity="0" stop-color="#753915" offset="0.9" ></stop></radialGradient><radialGradient id="SvgjsRadialGradient2890" cx="100" cy="54" r="37" gradientUnits="userSpaceOnUse" class="svga-on-canvas-facehighlight-gradient-single-1"><stop id="SvgjsStop2891" stop-opacity="0.5" stop-color="#844925" offset="0" ></stop><stop id="SvgjsStop2892" stop-opacity="0" stop-color="#753915" offset="0.9" ></stop></radialGradient><radialGradient id="SvgjsRadialGradient3260" cx="126.682" cy="84.862" r="13.37" gradientTransform="matrix(-1.0172 0 0 1.0172 202.5653 -1.4692)" gradientUnits="userSpaceOnUse" class="svga-on-canvas-eyesback-gradient-left-0"><stop id="SvgjsStop3261" stop-opacity="1" stop-color="#ffffff" offset="0" ></stop><stop id="SvgjsStop3262" stop-opacity="1" stop-color="#fdfefe" offset="0.544" ></stop><stop id="SvgjsStop3263" stop-opacity="1" stop-color="#f6f8f9" offset="0.74" ></stop><stop id="SvgjsStop3264" stop-opacity="1" stop-color="#eaeff2" offset="0.879" ></stop><stop id="SvgjsStop3265" stop-opacity="1" stop-color="#d9e3e8" offset="0.992" ></stop><stop id="SvgjsStop3266" stop-opacity="1" stop-color="#d8e2e7" offset="1" ></stop></radialGradient><radialGradient id="SvgjsRadialGradient3268" cx="126.289" cy="84.862" r="13.371" gradientTransform="matrix(1.0172 0 0 1.0172 -2.5653 -1.4692)" gradientUnits="userSpaceOnUse" class="svga-on-canvas-eyesback-gradient-right-0"><stop id="SvgjsStop3269" stop-opacity="1" stop-color="#ffffff" offset="0" ></stop><stop id="SvgjsStop3270" stop-opacity="1" stop-color="#fdfefe" offset="0.544" ></stop><stop id="SvgjsStop3271" stop-opacity="1" stop-color="#f6f8f9" offset="0.74" ></stop><stop id="SvgjsStop3272" stop-opacity="1" stop-color="#eaeff2" offset="0.879" ></stop><stop id="SvgjsStop3273" stop-opacity="1" stop-color="#d9e3e8" offset="0.992" ></stop><stop id="SvgjsStop3274" stop-opacity="1" stop-color="#d8e2e7" offset="1" ></stop></radialGradient><radialGradient id="SvgjsRadialGradient3276" cx="126.682" cy="84.862" r="13.37" gradientTransform="matrix(-1.0172 0 0 1.0172 202.5653 -1.4692)" gradientUnits="userSpaceOnUse" class="svga-on-canvas-eyesfront-gradient-left-0"><stop id="SvgjsStop3277" stop-opacity="1" stop-color="#ffffff" offset="0" ></stop><stop id="SvgjsStop3278" stop-opacity="1" stop-color="#fdfefe" offset="0.544" ></stop><stop id="SvgjsStop3279" stop-opacity="1" stop-color="#f6f8f9" offset="0.74" ></stop><stop id="SvgjsStop3280" stop-opacity="1" stop-color="#eaeff2" offset="0.879" ></stop><stop id="SvgjsStop3281" stop-opacity="1" stop-color="#d9e3e8" offset="0.992" ></stop><stop id="SvgjsStop3282" stop-opacity="1" stop-color="#d8e2e7" offset="1" ></stop></radialGradient><radialGradient id="SvgjsRadialGradient3286" cx="122.115" cy="84.345" fx="133.972" fy="84.379" r="16.863" gradientTransform="matrix(0.9998 0.0208 0.0166 -0.7998 -45.6081 149.2658)" gradientUnits="userSpaceOnUse" class="svga-on-canvas-eyesfront-gradient-left-3"><stop id="SvgjsStop3287" stop-opacity="1" stop-color="#662b08" offset="0" ></stop><stop id="SvgjsStop3288" stop-opacity="0.3" stop-color="#662b08" offset="0.7" ></stop><stop id="SvgjsStop3289" stop-opacity="0" stop-color="#753915" offset="1" ></stop></radialGradient><radialGradient id="SvgjsRadialGradient3291" cx="72.882" cy="102.392" r="22.097" gradientTransform="matrix(1.0455 -0.0545 0.0548 1.0391 -8.9534 0.4299)" gradientUnits="userSpaceOnUse" class="svga-on-canvas-eyesfront-gradient-left-4"><stop id="SvgjsStop3292" stop-opacity="0" stop-color="#000000" offset="0.95" ></stop><stop id="SvgjsStop3293" stop-opacity="0.2" stop-color="#000000" offset="1" ></stop></radialGradient><radialGradient id="SvgjsRadialGradient3297" cx="126.289" cy="84.862" r="13.371" gradientTransform="matrix(1.0172 0 0 1.0172 -2.5653 -1.4692)" gradientUnits="userSpaceOnUse" class="svga-on-canvas-eyesfront-gradient-right-0"><stop id="SvgjsStop3298" stop-opacity="1" stop-color="#ffffff" offset="0" ></stop><stop id="SvgjsStop3299" stop-opacity="1" stop-color="#fdfefe" offset="0.544" ></stop><stop id="SvgjsStop3300" stop-opacity="1" stop-color="#f6f8f9" offset="0.74" ></stop><stop id="SvgjsStop3301" stop-opacity="1" stop-color="#eaeff2" offset="0.879" ></stop><stop id="SvgjsStop3302" stop-opacity="1" stop-color="#d9e3e8" offset="0.992" ></stop><stop id="SvgjsStop3303" stop-opacity="1" stop-color="#d8e2e7" offset="1" ></stop></radialGradient><radialGradient id="SvgjsRadialGradient3307" cx="121.716" cy="84.345" fx="133.573" fy="84.379" r="16.863" gradientTransform="matrix(-0.9998 0.0208 -0.0166 -0.7998 244.8094 149.2741)" gradientUnits="userSpaceOnUse" class="svga-on-canvas-eyesfront-gradient-right-3"><stop id="SvgjsStop3308" stop-opacity="1" stop-color="#662b08" offset="0" ></stop><stop id="SvgjsStop3309" stop-opacity="0.3" stop-color="#662b08" offset="0.7" ></stop><stop id="SvgjsStop3310" stop-opacity="0" stop-color="#753915" offset="1" ></stop></radialGradient><radialGradient id="SvgjsRadialGradient3312" cx="73.264" cy="102.408" r="22.097" gradientTransform="matrix(-1.0455 -0.0545 -0.0548 1.0391 208.9532 0.4342)" gradientUnits="userSpaceOnUse" class="svga-on-canvas-eyesfront-gradient-right-4"><stop id="SvgjsStop3313" stop-opacity="0" stop-color="#000000" offset="0.95" ></stop><stop id="SvgjsStop3314" stop-opacity="0.2" stop-color="#000000" offset="1" ></stop></radialGradient><radialGradient id="SvgjsRadialGradient3319" cx="-568.659" cy="-521.042" r="59.751" gradientTransform="matrix(0.096 -0.0248 0.0245 0.0961 141.2814 119.9893)" gradientUnits="userSpaceOnUse" class="svga-on-canvas-eyesiris-gradient-left-1"><stop id="SvgjsStop3320" stop-opacity="1" stop-color="#ffffff" offset="0" ></stop><stop id="SvgjsStop3321" stop-opacity="0" stop-color="#ffffff" offset="1" ></stop></radialGradient><radialGradient id="SvgjsRadialGradient3323" cx="-582.838" cy="-519.099" r="59.745" gradientTransform="matrix(0.0991 8.856319e-004 -0.0011 0.0991 131.1134 135.9855)" gradientUnits="userSpaceOnUse" class="svga-on-canvas-eyesiris-gradient-left-2"><stop id="SvgjsStop3324" stop-opacity="1" stop-color="#ffffff" offset="0" ></stop><stop id="SvgjsStop3325" stop-opacity="0" stop-color="#ffffff" offset="1" ></stop></radialGradient><linearGradient id="SvgjsLinearGradient3329" x1="122.67" y1="88.268" x2="123.606" y2="87.152" gradientTransform="matrix(1 0 0 1 -52 0)" gradientUnits="userSpaceOnUse" class="svga-on-canvas-eyesiris-gradient-left-5"><stop id="SvgjsStop3330" stop-opacity="1" stop-color="#ffffff" offset="0" ></stop><stop id="SvgjsStop3331" stop-opacity="0" stop-color="#ffffff" offset="1" ></stop></linearGradient><linearGradient id="SvgjsLinearGradient3333" x1="127.212" y1="82.296" x2="126.463" y2="83.189" gradientTransform="matrix(1 0 0 1 -52 0)" gradientUnits="userSpaceOnUse" class="svga-on-canvas-eyesiris-gradient-left-6"><stop id="SvgjsStop3334" stop-opacity="1" stop-color="#ffffff" offset="0" ></stop><stop id="SvgjsStop3335" stop-opacity="0" stop-color="#ffffff" offset="1" ></stop></linearGradient><linearGradient id="SvgjsLinearGradient3337" x1="129.636" y1="79.822" x2="127.91" y2="81.879" gradientTransform="matrix(1 0 0 1 -52 0)" gradientUnits="userSpaceOnUse" class="svga-on-canvas-eyesiris-gradient-left-7"><stop id="SvgjsStop3338" stop-opacity="1" stop-color="#ffffff" offset="0" ></stop><stop id="SvgjsStop3339" stop-opacity="0" stop-color="#ffffff" offset="1" ></stop></linearGradient><radialGradient id="SvgjsRadialGradient3342" cx="-568.654" cy="-521.042" r="59.752" gradientTransform="matrix(0.096 -0.0248 0.0245 0.0961 193.2804 119.9894)" gradientUnits="userSpaceOnUse" class="svga-on-canvas-eyesiris-gradient-right-1"><stop id="SvgjsStop3343" stop-opacity="1" stop-color="#ffffff" offset="0" ></stop><stop id="SvgjsStop3344" stop-opacity="0" stop-color="#ffffff" offset="1" ></stop></radialGradient><radialGradient id="SvgjsRadialGradient3346" cx="-582.833" cy="-519.102" r="59.747" gradientTransform="matrix(0.0991 8.856319e-004 -0.0011 0.0991 183.1126 135.9856)" gradientUnits="userSpaceOnUse" class="svga-on-canvas-eyesiris-gradient-right-2"><stop id="SvgjsStop3347" stop-opacity="1" stop-color="#ffffff" offset="0" ></stop><stop id="SvgjsStop3348" stop-opacity="0" stop-color="#ffffff" offset="1" ></stop></radialGradient><linearGradient id="SvgjsLinearGradient3352" x1="122.67" y1="88.268" x2="123.606" y2="87.152" gradientUnits="userSpaceOnUse" class="svga-on-canvas-eyesiris-gradient-right-5"><stop id="SvgjsStop3353" stop-opacity="1" stop-color="#ffffff" offset="0" ></stop><stop id="SvgjsStop3354" stop-opacity="0" stop-color="#ffffff" offset="1" ></stop></linearGradient><linearGradient id="SvgjsLinearGradient3356" x1="127.212" y1="82.296" x2="126.463" y2="83.189" gradientUnits="userSpaceOnUse" class="svga-on-canvas-eyesiris-gradient-right-6"><stop id="SvgjsStop3357" stop-opacity="1" stop-color="#ffffff" offset="0" ></stop><stop id="SvgjsStop3358" stop-opacity="0" stop-color="#ffffff" offset="1" ></stop></linearGradient><linearGradient id="SvgjsLinearGradient3360" x1="129.636" y1="79.822" x2="127.91" y2="81.879" gradientUnits="userSpaceOnUse" class="svga-on-canvas-eyesiris-gradient-right-7"><stop id="SvgjsStop3361" stop-opacity="1" stop-color="#ffffff" offset="0" ></stop><stop id="SvgjsStop3362" stop-opacity="0" stop-color="#ffffff" offset="1" ></stop></linearGradient><linearGradient id="SvgjsLinearGradient3773" x1="100" y1="172" x2="100" y2="130" gradientUnits="userSpaceOnUse" class="svga-on-canvas-chinshadow-gradient-single-0"><stop id="SvgjsStop3774" stop-opacity="0.8" stop-color="#662b08" offset="0" ></stop><stop id="SvgjsStop3775" stop-opacity="1" stop-color="#471b00" offset="0.7" ></stop></linearGradient><linearGradient id="SvgjsLinearGradient3783" x1="100" y1="142" x2="100" y2="139" gradientUnits="userSpaceOnUse" class="svga-on-canvas-mouth-gradient-single-0"><stop id="SvgjsStop3784" stop-opacity="1" stop-color="#6d320e" offset="0.1" ></stop><stop id="SvgjsStop3785" stop-opacity="1" stop-color="#662b08" offset="1" ></stop></linearGradient></defs></svg>